PathFileType	4	(X/Y/Z)	D:\Long Term Storage\D'Arcy Smith\Coord12.trc
DataRate	CameraRate	NumFrames	NumMarkers	Units	OrigDataRate	OrigDataStartFrame	OrigNumFrames
120.00	120.00	      50	4	mm	120.00	602	      4812
Frame#	Time	M1			M2			M3			M4			
		X1	Y1	Z1	X2	Y2	Z2	X3	Y3	Z3	X4	Y4	Z4	

602	5.008	1011.23260	391.69342	170.34343	1628.96082	395.68695	174.13173							
603	5.017	1011.57739	391.80569	170.05084	1629.64722	395.53848	174.27307							
604	5.025	1011.98413	391.58600	170.04163	1629.95215	394.81104	174.81676							
605	5.033	1012.31824	390.97473	170.61986	1630.81067	393.80649	175.83162							
606	5.042	1012.93097	389.75397	171.54059	1631.53601	392.24786	177.12553							
607	5.050	1012.90314	388.61490	172.83432	1631.99084	389.99701	179.08055							
608	5.058	1013.06689	386.93039	174.53159	1632.74878	387.72217	181.36023							
609	5.067	1013.14075	384.78448	176.83945	1633.24915	384.79916	184.12038							
610	5.075	1013.27777	382.38113	179.37648	1633.74353	381.50815	187.37700							
611	5.083	1013.43500	379.62399	182.39699	1634.82153	377.89154	191.01714							
612	5.092	1013.53192	376.62027	185.80617	1636.35022	373.88297	195.33778							
613	5.100	1013.56970	373.37518	189.49310	1635.60107	369.91208	199.68930							
614	5.108	1013.56696	369.95905	193.72841	1635.84094	365.38852	204.68503							
615	5.117	1013.67389	366.20160	198.19278	1636.12756	360.64355	210.10487							
616	5.125	1013.75781	362.25058	202.98090	1636.48682	355.63315	215.71025							
617	5.133	1013.86877	358.15720	208.21472	1636.91443	350.43793	222.08926							
618	5.142	1013.86298	353.90176	213.68127	1637.22375	345.13153	228.63943							
619	5.150	1014.12488	349.42035	219.37631	1637.46094	339.36832	235.51027							
620	5.158	1014.27234	344.89960	225.54927	1638.11011	334.21292	243.29915							
621	5.167	1014.27209	340.32565	231.87538	1638.55115	328.55234	251.11832							
622	5.175	1014.48981	335.63348	238.72459	1638.82373	322.77084	259.22269							
623	5.183	1014.53589	331.01132	245.72301	1639.25623	317.03632	267.75192							
624	5.192	1014.79260	326.22653	253.02203	1639.57935	311.20267	276.60089							
625	5.200	1015.04065	321.38083	260.59369	1639.74231	305.05844	286.17877							
626	5.208	1015.49860	316.58627	268.35349	1640.01306	299.73456	295.98041							
627	5.217	1015.74475	311.77789	276.33557	1640.08887	294.44696	306.24371							
628	5.225	1016.40869	307.40338	284.51105	1640.04724	289.16132	316.81146							
629	5.233	1016.21820	302.77832	293.13531	1640.08203	284.36865	327.25735							
630	5.242	1016.25708	298.25928	302.01291	1639.89941	279.72653	338.51205							
631	5.250	1016.89178	294.25891	311.18527	1640.51636	275.44702	350.51855							
632	5.258	1017.37311	290.21548	320.62839	1640.12268	271.42480	362.40063							
633	5.267	1016.92834	286.54654	331.15012	1639.63940	267.84589	374.44556							
634	5.275	1017.44177	282.95633	340.83521	1639.12341	264.59766	386.72208							
635	5.283	1017.83948	279.07510	351.04404	1638.64355	261.70258	399.19061							
636	5.292	1018.58496	276.20529	360.95862	1638.12244	259.31644	411.74084							
637	5.300	1018.68787	273.36954	371.10825	1637.40002	257.33298	424.44263							
638	5.308	1018.98645	270.77615	381.15454	1636.71094	255.86803	437.16440							
639	5.317	1019.09583	268.41867	391.33267	1635.95117	254.85629	449.87894							
640	5.325	1019.34302	266.24194	401.41040	1635.15198	254.38174	462.61264							
641	5.333	1019.59003	264.51480	411.34012	1633.87793	254.09369	476.22028							
642	5.342	1019.64429	263.24326	421.53802	1632.85718	254.50574	488.13312							
643	5.350	1019.84845	262.21622	431.49963	1632.13416	255.98392	500.45587							
644	5.358	1019.76453	261.39694	441.38608	1630.72241	257.44513	512.71014							
645	5.367	1019.82947	261.03409	451.20444	1629.65906	259.30399	524.54120							
646	5.375	1019.81244	260.86908	460.81046	1628.64612	261.47733	535.92499							
647	5.383	1019.73560	260.92740	470.26080	1627.71179	264.05176	546.83679							
648	5.392	1019.75397	261.17227	479.46417	1626.68958	266.86389	557.50830							
649	5.400	1019.81012	261.87527	488.43933	1625.62976	269.76569	567.68665							
650	5.408	1019.92133	262.38620	496.96741	1624.70288	273.01044	577.40704							
651	5.417	1019.68140	263.45349	505.50848	1623.81799	276.47272	586.68567							
